<svg width="64" height="64" viewBox="0 0 64 64" fill="none" xmlns="http://www.w3.org/2000/svg">
<g clip-path="url(#clip0_53_70)">
<path fill-rule="evenodd" clip-rule="evenodd" d="M32 64C49.6732 64 64 49.6732 64 32C64 14.3269 49.6732 0 32 0C14.3269 0 0 14.3269 0 32C0 49.6732 14.3269 64 32 64Z" fill="white"/>
<path fill-rule="evenodd" clip-rule="evenodd" d="M31.9996 57.7066C46.197 57.7066 57.7063 46.1972 57.7063 31.9999C57.7063 17.8025 46.197 6.29321 31.9996 6.29321C17.8022 6.29321 6.29297 17.8025 6.29297 31.9999C6.29297 46.1972 17.8022 57.7066 31.9996 57.7066Z" fill="black"/>
<path fill-rule="evenodd" clip-rule="evenodd" d="M32.0004 55.2532C44.8429 55.2532 55.2537 44.8424 55.2537 31.9999C55.2537 19.1575 44.8429 8.74658 32.0004 8.74658C19.158 8.74658 8.74707 19.1575 8.74707 31.9999C8.74707 44.8424 19.158 55.2532 32.0004 55.2532Z" fill="white"/>
<path fill-rule="evenodd" clip-rule="evenodd" d="M32 32C49.6732 32 64 32 64 32C64 14.3269 49.6732 0 32 0C14.3269 0 0 14.3269 0 32C0 32 14.3269 32 32 32Z" fill="white"/>
<path fill-rule="evenodd" clip-rule="evenodd" d="M32.0001 11.6267L40.1281 24.3017L32.0001 37.0134L23.8721 24.3017L32.0001 11.6267Z" fill="black"/>
<path d="M7.51964 33.2373C8.1971 33.2373 8.7463 32.6881 8.7463 32.0106C8.7463 31.3331 8.1971 30.7839 7.51964 30.7839C6.84217 30.7839 6.29297 31.3331 6.29297 32.0106C6.29297 32.6881 6.84217 33.2373 7.51964 33.2373Z" fill="black"/>
<path d="M56.4796 33.2373C57.1571 33.2373 57.7063 32.6881 57.7063 32.0106C57.7063 31.3331 57.1571 30.7839 56.4796 30.7839C55.8021 30.7839 55.2529 31.3331 55.2529 32.0106C55.2529 32.6881 55.8021 33.2373 56.4796 33.2373Z" fill="black"/>
</g>
<defs>
<clipPath id="clip0_53_70">
<rect width="64" height="64" fill="white"/>
</clipPath>
</defs>
</svg>
