<svg width="289" height="88" viewBox="0 0 289 88" fill="none" xmlns="http://www.w3.org/2000/svg">
<rect x="0.384766" y="27.4212" width="284" height="60" rx="30" transform="rotate(-5.35448 0.384766 27.4212)" fill="#FF5C00"/>
<path d="M34.1116 44.3477L37.4819 51.3629L45.0012 53.3709L37.986 56.7412L35.978 64.2605L32.6077 57.2453L25.0884 55.2373L32.1036 51.867L34.1116 44.3477Z" fill="white"/>
<path d="M62.7275 54.0047C62.9266 53.8683 63.3371 53.6023 63.9592 53.2066C64.8707 52.6346 65.4976 52.2071 65.8399 51.9239C66.8533 51.0992 67.302 50.0684 67.1861 48.8317C67.095 47.8594 66.6939 47.0966 65.9829 46.5433C65.2719 45.9901 64.3759 45.7641 63.2947 45.8655C62.299 45.9588 61.4998 46.3476 60.8969 47.0318C60.3019 47.7153 60.0455 48.4966 60.1279 49.3755C60.2059 50.2078 60.5974 50.9519 61.3023 51.6077L59.2772 53.2335C58.3047 52.2339 57.7535 51.0419 57.6238 49.6573C57.5538 48.9106 57.6352 48.1889 57.8681 47.4922C58.108 46.7871 58.4656 46.1651 58.9408 45.6262C59.4231 45.0788 60.0319 44.6255 60.7672 44.2662C61.5096 43.8985 62.3202 43.6734 63.1992 43.591C65.0582 43.4168 66.5637 43.7818 67.7156 44.686C68.8753 45.5896 69.5306 46.8464 69.6815 48.4565C69.7602 49.2966 69.68 50.0731 69.4408 50.7861C69.2009 51.4912 68.8507 52.1086 68.3903 52.6383C67.9299 53.1679 67.3358 53.6944 66.6081 54.2177L65.3775 55.0275C64.3276 55.7144 63.5307 56.2952 62.9867 56.7699C62.4653 57.2347 62.163 57.777 62.0798 58.3968L70.5389 57.604L70.763 59.9958L59.0604 61.0927C58.9022 59.4047 59.1565 58.0156 59.8233 56.9252C60.5134 55.8326 61.4815 54.8591 62.7275 54.0047ZM84.1224 41.8654L84.3466 44.2572L76.1093 45.0293C76.2332 46.3516 76.2069 47.9548 76.0304 49.8389C76.4249 49.2762 76.965 48.8018 77.6508 48.4158C78.3435 48.0213 79.0866 47.7869 79.88 47.7125C81.4979 47.5609 82.8782 47.9298 84.0209 48.8192C85.1706 49.7002 85.8242 50.9807 85.9817 52.6608C86.1494 54.4499 85.7264 55.9647 84.7127 57.2053C83.7069 58.4452 82.2511 59.1545 80.3454 59.3331C79.2797 59.433 78.2821 59.3382 77.3526 59.0486C76.4302 58.7506 75.6334 58.2446 74.9623 57.5307C74.2989 56.816 73.8636 55.9388 73.6563 54.8989L76.0981 53.9521C76.3358 54.9812 76.7978 55.7658 77.4839 56.3057C78.1694 56.8378 79.0488 57.0535 80.1223 56.9529C81.2579 56.8465 82.1261 56.4395 82.7267 55.7319C83.3344 55.0158 83.5909 54.1522 83.4961 53.141C83.4006 52.122 82.9959 51.3203 82.282 50.736C81.5759 50.1509 80.6783 49.9093 79.5894 50.0114C78.8504 50.0807 78.1845 50.3432 77.5916 50.7989C76.998 51.2469 76.6112 51.7657 76.431 52.3554L73.6312 51.994C73.8235 48.9393 73.7775 45.8952 73.4932 42.8616L84.1224 41.8654ZM107.787 56.5257L107.261 50.9136C106.769 51.5325 106.123 52.0442 105.321 52.4489C104.52 52.8536 103.625 53.1023 102.637 53.1949C101.416 53.3093 100.333 53.144 99.3891 52.6989C98.4442 52.2461 97.7043 51.5935 97.1693 50.7413C96.6414 49.8805 96.3235 48.8746 96.2156 47.7234L95.566 40.7928L98.1912 40.5467L98.8003 47.0456C98.917 48.2901 99.3461 49.2268 100.088 49.8557C100.837 50.4838 101.807 50.7421 102.997 50.6306C103.79 50.5562 104.501 50.313 105.13 49.901C105.758 49.489 106.378 48.862 106.99 48.02L106.219 39.7944L108.855 39.5472L110.424 56.2786L107.787 56.5257ZM113.492 39.1126L125.685 37.9699L125.92 40.4784L116.364 41.374L116.768 45.6794L125.6 44.8516L125.835 47.3601L117.003 48.1879L117.462 53.0883L127.251 52.1708L127.486 54.6794L115.06 55.844L113.492 39.1126ZM150.71 52.5027L148.084 52.7488L146.653 37.4759L143.184 53.2081L139.124 53.5886L132.792 38.775L134.223 54.0479L131.586 54.2951L130.018 37.5637L134.919 37.1044L140.963 51.3682L144.241 36.2307L149.141 35.7714L150.71 52.5027ZM165.717 36.6307L156.639 37.4815L157.983 51.821L155.346 52.0682L153.778 35.3368L168.118 33.9928L169.686 50.7242L167.061 50.9702L165.717 36.6307ZM185.29 34.3136L178.896 49.8609L174.322 50.2896L172.754 33.5582L175.391 33.3111L176.782 48.1523L183.173 32.5817L187.747 32.153L189.315 48.8844L186.678 49.1315L185.29 34.3136ZM200.378 30.7338C201.55 30.6004 202.698 30.7124 203.823 31.07C204.954 31.4269 205.95 31.9574 206.808 32.6616C207.667 33.3658 208.375 34.2293 208.934 35.2519C209.493 36.2745 209.815 37.3625 209.899 38.5159C210.031 39.6649 209.917 40.7977 209.559 41.9141C209.2 43.0228 208.664 44.0028 207.951 44.8543C207.238 45.7058 206.359 46.412 205.313 46.973C204.274 47.5255 203.166 47.8451 201.99 47.9318C200.817 48.0653 199.665 47.9574 198.534 47.6084C197.41 47.2508 196.419 46.7199 195.56 46.0157C194.702 45.3115 193.989 44.4484 193.422 43.4265C192.863 42.3961 192.541 41.3042 192.456 40.1508C192.326 39.0096 192.44 37.8846 192.799 36.776C193.165 35.6588 193.705 34.6745 194.417 33.823C195.13 32.9715 196.005 32.2657 197.044 31.7054C198.09 31.1444 199.201 30.8205 200.378 30.7338ZM201.754 45.4233C202.851 45.3205 203.827 44.974 204.682 44.3839C205.544 43.7852 206.199 42.994 206.649 42.0103C207.098 41.0266 207.268 39.9475 207.157 38.7729C206.99 36.9917 206.282 35.5868 205.032 34.5583C203.789 33.5213 202.316 33.0827 200.613 33.2423C198.909 33.402 197.54 34.111 196.504 35.3694C195.477 36.627 195.046 38.1426 195.212 39.9161C195.379 41.6973 196.091 43.1018 197.349 44.1296C198.606 45.1495 200.074 45.5808 201.754 45.4233ZM225.662 38.3686L216.585 39.2193L217.245 46.2666L214.608 46.5137L213.04 29.7824L215.677 29.5352L216.361 36.8275L225.438 35.9767L224.755 28.6844L227.38 28.4384L228.948 45.1697L226.323 45.4158L225.662 38.3686ZM232.161 44.8686L237.465 27.4931L241.105 27.1519L249.558 43.2381L246.594 43.5158L244.603 39.6064L236.343 40.3807L235.125 44.5908L232.161 44.8686ZM237.052 37.9013L243.446 37.302L239.49 29.5044L237.052 37.9013ZM262.077 25.1863L262.312 27.6949L256.221 28.2657L257.555 42.4885L254.929 42.7346L253.596 28.5118L247.494 29.0837L247.259 26.5752L262.077 25.1863Z" fill="white"/>
</svg>
