<svg width="157" height="64" viewBox="0 0 157 64" fill="none" xmlns="http://www.w3.org/2000/svg">
<g clip-path="url(#clip0_53_78)">
<path d="M7.73594 17.5455H4.59876V31.0753H0V0.289551H4.59876V12.6256H7.73594V0.289551H12.3347V31.1115H7.73594V17.5455Z" fill="#FAF9F9"/>
<path d="M20.2484 31.4369H19.3572C15.6853 31.4369 13.7246 29.4111 13.7246 25.6126V19.4265H18.2877V24.8167C18.2877 26.2276 18.7512 26.9873 19.785 26.9873C20.8901 26.9873 21.2823 26.2276 21.2823 24.3465V23.6591C21.2823 21.4524 21.0684 20.6927 19.3928 18.4859L16.5053 14.6151C14.5445 12.0466 13.9742 10.0569 13.9742 6.98199V6.0052C13.9742 1.91733 16.0062 0 19.6424 0H20.498C24.2768 0 25.7741 1.70027 25.7741 5.35403V10.4187H21.3179V5.96902C21.3179 4.91992 21.104 4.16024 19.9989 4.16024C18.8938 4.16024 18.6442 4.84757 18.6442 6.33078V6.90964C18.6442 8.64608 18.9651 9.58665 20.5336 11.6487L23.4569 15.4833C25.5246 18.2327 26.2019 19.7883 26.2019 23.2612V24.2379C26.2019 28.7599 24.2768 31.4369 20.2484 31.4369Z" fill="#FAF9F9"/>
<path d="M38.0024 0.289307V4.77512H32.1202V12.8424H36.719V17.5091H32.1202V26.4084H38.252V31.0751H27.5215V0.289307H38.0024Z" fill="#FAF9F9"/>
<path d="M50.694 25.2872H47.3429L46.7368 31.0754H42.6016L46.3092 0.253418H51.7635L55.7207 31.0754H51.2643L50.694 25.2872ZM50.1949 20.6929L48.9827 9.29743L47.8063 20.6929H50.1949Z" fill="#FAF9F9"/>
<path d="M61.1025 31.1113H56.5039V0.289307H63.9903C67.056 0.289307 68.5889 1.62782 68.5889 5.06453V10.5271C68.5889 13.0956 67.4125 14.0724 66.5926 14.4703C67.6263 14.9406 68.5889 15.7726 68.5889 17.8347V28.6513C68.5889 29.8813 68.8385 30.4601 69.0523 30.9304V31.1474H64.4894C64.2756 30.8218 64.026 30.2792 64.026 28.6151V19.2817C64.026 17.907 63.7764 17.3282 62.3147 17.3282H61.1383V31.1113H61.1025ZM61.1025 12.9509H62.3147C63.598 12.9509 63.9903 12.1189 63.9903 10.7442V6.43921C63.9903 5.1007 63.7049 4.44955 62.3147 4.44955H61.1025V12.9509Z" fill="#FAF9F9"/>
<path d="M77.8942 4.73919V31.0753H73.3309V4.73919H69.4453V0.289551H81.7799V4.77536H77.8942V4.73919Z" fill="#FAF9F9"/>
<path d="M94.1149 25.2872H90.7638L90.1577 31.0754H86.0225L89.7296 0.253418H95.1844L99.1411 31.0754H94.6852L94.1149 25.2872ZM93.6157 20.6929L92.4035 9.29743L91.2272 20.6929H93.6157Z" fill="#FAF9F9"/>
<path d="M104.061 0.289307L108.018 16.8217V0.289307H112.224V31.1113H108.481L104.061 13.385V31.1113H99.8896V0.289307H104.061Z" fill="#FAF9F9"/>
<path d="M113.936 0.289551H121.03C124.987 0.289551 126.199 2.56864 126.199 6.2224V24.9978C126.199 28.7601 124.809 31.1115 121.03 31.1115H113.971V0.289551H113.936ZM118.57 26.6257H119.675C121.065 26.6257 121.458 25.866 121.458 24.2381V6.87356C121.458 5.10095 120.994 4.48597 119.853 4.48597H118.534V26.6257H118.57Z" fill="#FAF9F9"/>
<path d="M0 32.7031H7.0586C11.0157 32.7031 12.2278 34.9822 12.2278 38.636V57.4113C12.2278 61.1737 10.8374 63.5249 7.0586 63.5249H0V32.7031ZM4.59876 59.0753H5.70389C7.09425 59.0753 7.4864 58.3159 7.4864 56.6878V39.3234C7.4864 37.5507 7.02296 36.9358 5.88213 36.9358H4.56311V59.0753H4.59876Z" fill="#FAF9F9"/>
<path d="M24.3838 32.7029V37.1887H18.5016V45.256H23.1004V49.9226H18.5016V58.8218H24.6333V63.4888H13.8672V32.7029H24.3838Z" fill="#FAF9F9"/>
<path d="M31.978 63.8502H31.0867C27.4148 63.8502 25.4541 61.8245 25.4541 58.0262V51.84H30.0172V57.2301C30.0172 58.6413 30.4807 59.4007 31.5145 59.4007C32.6197 59.4007 33.0118 58.6413 33.0118 56.7599V56.0727C33.0118 53.8658 32.7979 53.106 31.1223 50.8995L28.1991 47.1009C26.2384 44.5325 25.668 42.5428 25.668 39.4678V38.4911C25.668 34.4032 27.7 32.4858 31.3363 32.4858H32.1919C36.0063 32.4858 37.468 34.1861 37.468 37.8399V42.9045H33.0118V38.4549C33.0118 37.4058 32.7979 36.6461 31.6928 36.6461C30.5876 36.6461 30.3381 37.3334 30.3381 38.8167V39.3955C30.3381 41.1319 30.6589 42.0725 32.2275 44.1345L35.1508 47.9692C37.2184 50.7184 37.8957 52.274 37.8957 55.7472V56.7235C37.9314 61.1736 36.0063 63.8502 31.978 63.8502Z" fill="#FAF9F9"/>
<path d="M43.8488 63.5249H39.25V32.7031H43.8488V63.5249Z" fill="#FAF9F9"/>
<path d="M49.8376 63.9592C47.1283 63.9592 45.417 61.4995 45.417 58.3158V39.0341C45.417 35.5973 46.7361 32.4138 51.0851 32.4138H51.9766C56.9317 32.4138 57.502 35.6697 57.502 39.3235V42.4708H53.0102V38.9979C53.0102 37.6232 52.6895 36.8997 51.5489 36.8997C50.5864 36.8997 50.123 37.6594 50.123 38.9979V57.0136C50.123 58.4606 50.6933 59.2205 51.6201 59.2205C52.7964 59.2205 53.3314 58.388 53.3314 57.2306V49.5252H51.2636V44.786H57.7162V63.5253H55.1139C55.0781 63.3442 54.7216 61.825 54.3293 60.4864C54.0086 61.5354 52.4399 63.9233 50.123 63.9233H49.8376V63.9592Z" fill="#FAF9F9"/>
<path d="M63.4913 32.7029L67.4485 49.2354V32.7029H71.6549V63.5247H67.9119L63.4913 45.7985V63.5247H59.3203V32.7029H63.4913Z" fill="#FAF9F9"/>
<path d="M83.7044 63.8502H82.8134C79.1416 63.8502 77.1807 61.8245 77.1807 58.0262V51.84H81.744V57.2301C81.744 58.6413 82.2074 59.4007 83.241 59.4007C84.3463 59.4007 84.7381 58.6413 84.7381 56.7599V56.0727C84.7381 53.8658 84.5243 53.106 82.8488 50.8995L79.9257 47.1009C77.9648 44.5325 77.3945 42.5428 77.3945 39.4678V38.4911C77.3945 34.4032 79.4265 32.4858 83.063 32.4858H83.9182C87.6974 32.4858 89.1945 34.1861 89.1945 37.8399V42.9045H84.7381V38.4549C84.7381 37.4058 84.5243 36.6461 83.4195 36.6461C82.3143 36.6461 82.0647 37.3334 82.0647 38.8167V39.3955C82.0647 41.1319 82.3854 42.0725 83.954 44.1345L86.8775 47.9692C88.9449 50.7184 89.6221 52.274 89.6221 55.7472V56.7235C89.6579 61.1736 87.7328 63.8502 83.7044 63.8502Z" fill="#FAF9F9"/>
<path d="M98.499 57.2664V50.1039H103.026V57.2305C103.026 60.5585 101.957 63.8865 97.5006 63.8865H96.4669C91.7967 63.8865 90.7988 60.4864 90.7988 57.3749V38.5636C90.7988 35.4163 92.1532 32.3774 96.3242 32.3774H97.3937C102.456 32.3774 103.026 35.778 103.026 38.7806V44.2794H98.499V38.853C98.499 37.5145 98.1067 36.8271 96.9303 36.8271C95.7897 36.8271 95.5044 37.4783 95.5044 38.853V57.1579C95.5044 58.5328 95.9678 59.2563 96.9661 59.2563C98.1067 59.3648 98.499 58.5328 98.499 57.2664Z" fill="#FAF9F9"/>
<path d="M112.26 49.9955H109.123V63.5249H104.524V32.7031H109.123V45.0392H112.26V32.7031H116.859V63.5249H112.26V49.9955Z" fill="#FAF9F9"/>
<path d="M131.083 56.6518C131.083 60.9566 129.657 63.887 125.2 63.887H124.416C119.996 63.887 118.463 60.9566 118.463 56.6518V39.5043C118.463 35.2355 120.067 32.4138 124.381 32.4138H125.165C129.657 32.4138 131.083 35.2355 131.083 39.4682V56.6518ZM126.377 39.2511C126.377 37.6232 125.842 36.8997 124.773 36.8997C123.596 36.8997 123.133 37.6955 123.133 39.2511V56.9773C123.133 58.3158 123.49 59.329 124.809 59.329C126.02 59.329 126.377 58.2795 126.377 56.9773V39.2511Z" fill="#FAF9F9"/>
<path d="M145.165 56.6518C145.165 60.9566 143.739 63.887 139.283 63.887H138.498C134.078 63.887 132.545 60.9566 132.545 56.6518V39.5043C132.545 35.2355 134.149 32.4138 138.463 32.4138H139.247C143.739 32.4138 145.165 35.2355 145.165 39.4682V56.6518ZM140.459 39.2511C140.459 37.6232 139.924 36.8997 138.855 36.8997C137.679 36.8997 137.215 37.6955 137.215 39.2511V56.9773C137.215 58.3158 137.571 59.329 138.89 59.329C140.102 59.329 140.459 58.2795 140.459 56.9773V39.2511Z" fill="#FAF9F9"/>
<path d="M151.367 32.7029V58.7496H157V63.5247H146.769V32.7029H151.367Z" fill="#FAF9F9"/>
</g>
<defs>
<clipPath id="clip0_53_78">
<rect width="157" height="64" fill="white"/>
</clipPath>
</defs>
</svg>
