<svg width="210" height="210" viewBox="0 0 210 210" fill="none" xmlns="http://www.w3.org/2000/svg">
<path d="M67.6282 116.38L65.8353 105.322L67.5781 105.039L68.3371 109.72L72.2361 104.284L74.5265 103.913L70.0939 110.061L76.6356 114.92L74.1832 115.318L68.5596 111.093L69.371 116.098L67.6282 116.38ZM81.183 102.675C81.9568 102.534 82.7256 102.557 83.4894 102.744C84.2584 102.931 84.9441 103.239 85.5468 103.669C86.1494 104.099 86.6594 104.642 87.077 105.297C87.4945 105.952 87.7572 106.661 87.8652 107.425C88.0039 108.183 87.9792 108.942 87.7909 109.7C87.6017 110.454 87.2892 111.13 86.8533 111.728C86.4174 112.326 85.8641 112.836 85.1936 113.256C84.5273 113.67 83.8047 113.932 83.0259 114.042C82.2521 114.184 81.4811 114.163 80.713 113.982C79.9492 113.795 79.266 113.486 78.6634 113.056C78.0608 112.626 77.5481 112.084 77.1254 111.429C76.7071 110.769 76.4439 110.057 76.336 109.294C76.1981 108.541 76.2236 107.787 76.4128 107.034C76.6062 106.274 76.9209 105.595 77.3568 104.997C77.7927 104.399 78.3434 103.89 79.0089 103.471C79.6794 103.051 80.4041 102.786 81.183 102.675ZM82.7571 112.384C83.482 112.267 84.1155 111.993 84.6577 111.562C85.2043 111.125 85.6049 110.569 85.8596 109.895C86.1143 109.22 86.1787 108.495 86.0529 107.719C85.862 106.541 85.3278 105.639 84.4504 105.01C83.5772 104.376 82.5777 104.151 81.4518 104.333C80.3259 104.516 79.4467 105.049 78.8143 105.932C78.1871 106.815 77.9684 107.842 78.1585 109.014C78.3494 110.192 78.8861 111.094 79.7687 111.721C80.6505 112.343 81.6466 112.564 82.7571 112.384ZM92.3823 107.832L93.0987 112.251L91.3559 112.534L89.5629 101.475L94.699 100.642C95.8044 100.463 96.7249 100.641 97.4606 101.176C98.1964 101.711 98.6401 102.446 98.7918 103.382C98.8626 103.819 98.8505 104.248 98.7553 104.67C98.6601 105.092 98.4909 105.48 98.2479 105.836C98.01 106.192 97.6773 106.499 97.2497 106.758C96.8222 107.017 96.3308 107.192 95.7755 107.282L92.3823 107.832ZM92.1135 106.174L95.3525 105.649C95.9129 105.558 96.3433 105.333 96.6437 104.973C96.9441 104.613 97.0535 104.181 96.9718 103.677C96.8901 103.173 96.6503 102.8 96.2523 102.559C95.8587 102.311 95.3791 102.233 94.8136 102.325L91.5746 102.85L92.1135 106.174ZM100.228 111.095L102.977 99.3L105.383 98.9099L111.726 109.231L109.767 109.549L108.268 107.037L102.808 107.923L102.186 110.778L100.228 111.095ZM103.168 106.242L107.394 105.557L104.414 100.547L103.168 106.242ZM113.834 108.889L112.041 97.8304L119.861 96.5626L120.13 98.2207L114.053 99.2059L114.522 102.098L118.385 101.471C119.45 101.299 120.369 101.451 121.142 101.927C121.921 102.402 122.391 103.138 122.553 104.136C122.715 105.133 122.501 105.98 121.912 106.677C121.329 107.373 120.505 107.808 119.441 107.98L113.834 108.889ZM115.308 106.949L119.095 106.335C119.655 106.244 120.086 106.021 120.387 105.666C120.694 105.31 120.809 104.899 120.733 104.431C120.657 103.963 120.418 103.609 120.015 103.368C119.617 103.126 119.138 103.051 118.577 103.142L114.791 103.756L115.308 106.949ZM125.004 107.078L124.963 106.824C125.414 105.606 125.445 103.796 125.056 101.395L124.16 95.8657L132.851 94.4567L134.644 105.515L132.901 105.798L131.364 96.3201L126.151 97.1653L126.766 100.96C127.196 103.612 127.216 105.554 126.824 106.783L125.004 107.078ZM137.701 105.02L135.908 93.961L137.651 93.6785L138.388 98.2284L142.19 97.6121C143.254 97.4395 144.173 97.5913 144.947 98.0674C145.721 98.5434 146.188 99.2802 146.35 100.278C146.512 101.275 146.301 102.122 145.717 102.818C145.134 103.514 144.31 103.948 143.246 104.121L137.701 105.02ZM139.175 103.079L142.9 102.475C143.46 102.384 143.891 102.162 144.192 101.807C144.498 101.451 144.614 101.039 144.538 100.571C144.462 100.104 144.223 99.7493 143.819 99.5086C143.422 99.2671 142.942 99.1917 142.382 99.2826L138.657 99.8865L139.175 103.079Z" fill="white"/>
<rect x="46.9535" y="92.8863" width="114" height="41" rx="20.5" transform="rotate(-9.20904 46.9535 92.8863)" stroke="white"/>
<rect x="46.9535" y="92.8863" width="114" height="41" rx="20.5" transform="rotate(-9.20904 46.9535 92.8863)" stroke="black" stroke-opacity="0.2"/>
<path d="M195.391 106.218L199.933 109.688L208.09 105.277L207.926 107.645L201.653 110.926L207.408 115.08L207.247 117.395L195.224 108.62L195.391 106.218Z" fill="white"/>
<path d="M198.111 119.114L198.427 121.111C197.591 120.983 196.875 121.102 196.277 121.467C195.684 121.839 195.3 122.438 195.126 123.263C194.968 124.014 194.991 124.63 195.195 125.11C195.405 125.592 195.8 125.893 196.379 126.015C196.97 126.14 197.463 126.055 197.861 125.761C198.257 125.473 198.521 125.011 198.656 124.375L198.822 123.584L200.671 123.973L200.523 124.678C200.251 125.968 200.686 126.734 201.827 126.974C202.389 127.092 202.874 126.979 203.282 126.634C203.694 126.295 203.975 125.774 204.123 125.068C204.256 124.438 204.185 123.878 203.911 123.389C203.635 122.906 203.168 122.526 202.507 122.249L203.67 120.653C204.605 121.101 205.278 121.746 205.688 122.586C206.102 123.434 206.191 124.42 205.954 125.544C205.692 126.788 205.163 127.721 204.367 128.344C203.582 128.975 202.644 129.176 201.555 128.947C200.85 128.798 200.298 128.505 199.899 128.068C199.504 127.637 199.284 127.091 199.238 126.429C198.954 127.039 198.527 127.486 197.959 127.767C197.397 128.05 196.734 128.111 195.971 127.95C194.825 127.709 194.018 127.117 193.552 126.174C193.103 125.235 193.018 124.107 193.295 122.788C193.434 122.129 193.661 121.548 193.977 121.045C194.298 120.544 194.675 120.147 195.107 119.855C195.539 119.569 196.008 119.362 196.513 119.235C197.024 119.115 197.556 119.075 198.111 119.114Z" fill="white"/>
<path d="M193.947 139.939L196.277 133.51L191.286 131.701L191.963 129.834L203.812 134.128L203.135 135.996L197.971 134.124L195.641 140.553L200.806 142.425L200.132 144.284L188.282 139.989L188.956 138.13L193.947 139.939Z" fill="white"/>
<path d="M187.43 142.348L195.926 153L194.593 155.396L181.058 153.799L182.144 151.848L185.406 152.276L188.432 146.838L186.345 144.299L187.43 142.348ZM189.664 148.329L187.322 152.537L193.823 153.399L189.664 148.329Z" fill="white"/>
<path d="M183.458 171.535L181.963 170.379L184.769 166.749L176.293 160.197L177.502 158.632L185.979 165.185L188.79 161.548L190.285 162.704L183.458 171.535Z" fill="white"/>
<path d="M171.569 166.046L180.317 175.118L178.888 176.497L175.288 172.764L172.169 175.772C171.296 176.614 170.349 177.063 169.329 177.119C168.308 177.175 167.404 176.794 166.615 175.975C165.826 175.157 165.478 174.239 165.571 173.222C165.664 172.204 166.147 171.274 167.02 170.432L171.569 166.046ZM171.451 168.785L168.395 171.731C167.935 172.175 167.68 172.657 167.629 173.178C167.574 173.703 167.731 174.158 168.101 174.542C168.471 174.926 168.92 175.1 169.447 175.063C169.97 175.032 170.461 174.794 170.921 174.351L173.976 171.404L171.451 168.785Z" fill="white"/>
<path d="M157.343 178.611L164.03 189.294L156.476 194.023L155.473 192.421L161.344 188.746L159.595 185.953L155.863 188.289C154.835 188.933 153.816 189.176 152.806 189.021C151.791 188.868 150.981 188.31 150.378 187.346C149.775 186.383 149.627 185.411 149.933 184.432C150.234 183.455 150.899 182.645 151.927 182.001L157.343 178.611ZM156.662 181.267L153.004 183.556C152.462 183.895 152.113 184.315 151.956 184.814C151.793 185.317 151.854 185.794 152.136 186.246C152.419 186.698 152.822 186.961 153.345 187.034C153.863 187.111 154.393 186.98 154.934 186.641L158.592 184.351L156.662 181.267Z" fill="white"/>
<path d="M145.468 199.687C144.66 200.048 143.813 200.228 142.929 200.227C142.038 200.228 141.207 200.074 140.433 199.765C139.66 199.456 138.958 198.999 138.327 198.394C137.696 197.79 137.219 197.084 136.898 196.279C136.544 195.487 136.368 194.652 136.372 193.772C136.377 192.898 136.539 192.076 136.855 191.306C137.172 190.536 137.641 189.832 138.262 189.194C138.88 188.563 139.599 188.084 140.421 187.756C141.229 187.395 142.077 187.211 142.965 187.204C143.85 187.206 144.679 187.361 145.452 187.67C146.225 187.979 146.93 188.435 147.567 189.037C148.2 189.647 148.678 190.355 148.999 191.16C149.351 191.947 149.524 192.777 149.518 193.651C149.51 194.533 149.347 195.359 149.03 196.129C148.713 196.899 148.247 197.602 147.632 198.238C147.011 198.876 146.289 199.359 145.468 199.687ZM141.157 189.496C140.396 189.818 139.777 190.286 139.299 190.902C138.819 191.525 138.529 192.239 138.431 193.044C138.332 193.85 138.455 194.659 138.8 195.474C139.323 196.71 140.147 197.554 141.274 198.007C142.397 198.467 143.55 198.447 144.732 197.947C145.913 197.447 146.732 196.63 147.188 195.496C147.638 194.364 147.603 193.183 147.082 191.952C146.559 190.716 145.732 189.873 144.6 189.423C143.471 188.979 142.323 189.003 141.157 189.496Z" fill="white"/>
<path d="M132.735 191.074L132.804 191.356C132.409 192.763 132.539 194.795 133.194 197.451L134.704 203.57L125.087 205.942L122.068 193.705L123.997 193.229L126.584 203.717L132.352 202.294L131.317 198.095C130.592 195.16 130.394 192.985 130.721 191.571L132.735 191.074Z" fill="white"/>
<path d="M118.992 194.289L120.206 206.834L118.228 207.026L117.729 201.864L113.416 202.281C112.209 202.398 111.189 202.161 110.354 201.571C109.52 200.98 109.048 200.119 108.939 198.988C108.83 197.856 109.128 196.921 109.833 196.182C110.539 195.442 111.495 195.014 112.702 194.898L118.992 194.289ZM117.197 196.362L112.972 196.77C112.336 196.832 111.836 197.051 111.472 197.427C111.103 197.804 110.944 198.258 110.995 198.789C111.046 199.32 111.289 199.735 111.725 200.034C112.154 200.334 112.686 200.453 113.322 200.392L117.547 199.983L117.197 196.362Z" fill="white"/>
<path d="M92.2151 207.199L90.2342 207.054L91.1571 194.484L105.489 195.536L104.566 208.106L102.585 207.96L103.376 197.188L99.177 196.879L98.386 207.652L96.4138 207.507L97.2048 196.735L93.0061 196.426L92.2151 207.199Z" fill="white"/>
<path d="M85.4107 206.156L76.4851 203.99L76.9307 202.154L83.9259 203.851L84.6907 200.7L78.225 199.131L78.6706 197.295L85.1363 198.863L86.0067 195.276L78.8406 193.537L79.2862 191.701L88.3826 193.908L85.4107 206.156Z" fill="white"/>
<path d="M68.6514 194.685L66.4982 193.774L67.409 191.621L69.5622 192.532L68.6514 194.685Z" fill="white"/>
<path d="M60.1951 183.653L54.9785 185.991L54.9643 195.264L52.9622 193.99L53.0695 186.912L46.674 189.989L44.7163 188.743L58.1633 182.361L60.1951 183.653Z" fill="white"/>
<path d="M47.6913 179.963L45.7854 179.286C46.2967 178.613 46.5348 177.927 46.4995 177.227C46.4559 176.529 46.113 175.906 45.4706 175.358C44.8862 174.861 44.3343 174.587 43.8149 174.537C43.2917 174.492 42.8383 174.694 42.4546 175.145C42.0633 175.605 41.9018 176.079 41.9701 176.568C42.0339 177.053 42.3134 177.507 42.8086 177.929L43.4242 178.453L42.199 179.891L41.6503 179.424C40.6466 178.569 39.7668 178.586 39.0108 179.474C38.6385 179.911 38.5065 180.391 38.615 180.914C38.7152 181.438 39.0396 181.934 39.5883 182.401C40.079 182.819 40.6046 183.024 41.1651 183.017C41.7212 183.006 42.2785 182.776 42.837 182.328L43.6844 184.112C42.8437 184.72 41.9561 185.003 41.0217 184.961C40.0791 184.92 39.1706 184.528 38.2962 183.783C37.3282 182.959 36.7606 182.048 36.5934 181.051C36.4142 180.06 36.6855 179.14 37.4073 178.293C37.8746 177.744 38.3956 177.399 38.9703 177.257C39.5368 177.116 40.122 177.184 40.726 177.459C40.3252 176.918 40.1368 176.33 40.1608 175.697C40.181 175.067 40.4438 174.456 40.949 173.863C41.7088 172.971 42.6141 172.545 43.6648 172.585C44.704 172.639 45.7367 173.103 46.7627 173.977C47.2757 174.414 47.6776 174.891 47.9684 175.408C48.2555 175.929 48.424 176.45 48.4739 176.97C48.5194 177.485 48.4772 177.996 48.3473 178.501C48.2091 179.007 47.9904 179.494 47.6913 179.963Z" fill="white"/>
<path d="M31.3335 166.332L35.8794 171.44L39.845 167.911L41.1655 169.395L31.7506 177.774L30.4301 176.29L34.5335 172.638L29.9875 167.53L25.8841 171.182L24.5694 169.705L33.9843 161.326L35.299 162.803L31.3335 166.332Z" fill="white"/>
<path d="M32.4106 159.566L19.007 162.014L17.5264 159.705L25.3354 148.536L26.5407 150.415L24.621 153.087L27.9807 158.325L31.2053 157.687L32.4106 159.566ZM26.0845 158.706L23.4841 154.652L19.6501 159.972L26.0845 158.706Z" fill="white"/>
<path d="M8.59536 142.268L10.3217 141.5L12.1874 145.691L21.9754 141.334L22.7796 143.141L12.9916 147.498L14.8609 151.697L13.1346 152.466L8.59536 142.268Z" fill="white"/>
<path d="M19.0173 134.3L6.86514 137.643L6.33833 135.727L11.3382 134.352L10.189 130.174C9.8673 129.005 9.92592 127.959 10.3648 127.036C10.8038 126.113 11.5712 125.501 12.6672 125.199C13.7632 124.898 14.7358 125.031 15.585 125.6C16.4342 126.169 17.0196 127.038 17.3413 128.207L19.0173 134.3ZM16.6685 132.886L15.5426 128.793C15.3732 128.177 15.0719 127.722 14.6385 127.428C14.2036 127.128 13.7291 127.049 13.215 127.191C12.7009 127.332 12.3336 127.643 12.1132 128.123C11.8912 128.597 11.8649 129.142 12.0343 129.758L13.1602 133.851L16.6685 132.886Z" fill="white"/>
<path d="M14.7979 116.089L2.21841 116.867L1.6686 107.971L3.55465 107.855L3.98192 114.767L7.27154 114.564L6.99989 110.169C6.92506 108.959 7.19714 107.947 7.81612 107.133C8.43474 106.314 9.31133 105.87 10.4459 105.8C11.5804 105.73 12.5051 106.063 13.2199 106.799C13.9343 107.53 14.3289 108.501 14.4037 109.711L14.7979 116.089ZM12.7893 114.223L12.5231 109.916C12.4837 109.278 12.2821 108.771 11.9183 108.395C11.5542 108.012 11.106 107.837 10.5738 107.87C10.0417 107.903 9.61844 108.132 9.30418 108.556C8.98957 108.975 8.85196 109.503 8.89136 110.14L9.15759 114.447L12.7893 114.223Z" fill="white"/>
<path d="M1.94816 94.9517C2.01922 94.0696 2.26748 93.2407 2.69296 92.4649C3.11902 91.6833 3.65317 91.0274 4.29539 90.4972C4.93761 89.9671 5.67537 89.5701 6.50867 89.3065C7.34198 89.0429 8.18916 88.9632 9.05024 89.0675C9.91483 89.1368 10.7321 89.3839 11.502 89.8088C12.2661 90.2331 12.9101 90.769 13.4338 91.4164C13.9576 92.0639 14.3504 92.813 14.6123 93.6638C14.8689 94.5082 14.9442 95.3697 14.8382 96.2482C14.7671 97.1303 14.5215 97.9624 14.1013 98.7446C13.6758 99.5204 13.1419 100.173 12.4997 100.704C11.8575 101.234 11.1194 101.634 10.2855 101.903C9.44642 102.166 8.59631 102.245 7.73524 102.141C6.87648 102.072 6.06504 101.826 5.30093 101.402C4.53158 100.971 3.88502 100.432 3.36125 99.7844C2.83749 99.1369 2.44437 98.3907 2.18191 97.5457C1.92004 96.6949 1.84212 95.8303 1.94816 94.9517ZM12.958 96.0591C13.0407 95.2371 12.9266 94.4689 12.6157 93.7545C12.2995 93.0337 11.8119 92.437 11.1527 91.9643C10.4936 91.4917 9.72386 91.2111 8.84353 91.1225C7.50847 90.9883 6.37226 91.3068 5.43488 92.0782C4.49226 92.8432 3.95674 93.864 3.82832 95.1408C3.6999 96.4176 4.02401 97.5278 4.80064 98.4716C5.57786 99.4096 6.63108 99.9454 7.96031 100.079C9.29537 100.213 10.4319 99.8919 11.3698 99.1147C12.302 98.3369 12.8314 97.3184 12.958 96.0591Z" fill="white"/>
<path d="M15.5725 87.9993L15.292 87.9255C14.2455 86.9053 12.3991 86.0473 9.75263 85.3517L3.65792 83.7496L6.17611 74.1698L18.3655 77.3739L17.8606 79.295L7.41369 76.5489L5.90323 82.2951L10.0854 83.3944C13.0095 84.1631 15.0143 85.0293 16.0998 85.9932L15.5725 87.9993Z" fill="white"/>
<path d="M19.2456 74.5075L7.65612 69.5545L8.43673 67.728L13.2051 69.7658L14.9079 65.7814C15.3845 64.6661 16.082 63.8841 17.0001 63.4354C17.9183 62.9867 18.9 62.9857 19.9453 63.4324C20.9906 63.8792 21.6683 64.5894 21.9786 65.5631C22.2889 66.5368 22.2057 67.5813 21.729 68.6966L19.2456 74.5075ZM18.2886 71.9384L19.9569 68.0348C20.2079 67.4475 20.2554 66.9039 20.0995 66.404C19.9459 65.8987 19.6239 65.5412 19.1336 65.3317C18.6433 65.1221 18.1625 65.1365 17.6911 65.3747C17.222 65.6075 16.8619 66.0176 16.611 66.6049L14.9427 70.5084L18.2886 71.9384Z" fill="white"/>
<path d="M20.3648 45.3408L21.4372 43.6688L32.0459 50.4736L24.2873 62.5693L13.6787 55.7645L14.7511 54.0926L23.8432 59.9245L26.1162 56.3809L17.0241 50.5489L18.0918 48.8844L27.1839 54.7164L29.4569 51.1728L20.3648 45.3408Z" fill="white"/>
<path d="M24.7148 39.5502L30.8706 32.7339L32.273 34.0004L27.4485 39.3426L29.8555 41.5163L34.3147 36.5785L35.7171 37.845L31.2579 42.7828L33.9974 45.2569L38.9398 39.7842L40.3422 41.0508L34.0685 47.9975L24.7148 39.5502Z" fill="white"/>
<path d="M42.5842 30.4066L44.4075 28.9433L45.8708 30.7666L44.0475 32.2299L42.5842 30.4066Z" fill="white"/>
<path d="M56.4744 28.0238L56.9033 22.3235L48.7562 17.8952L50.8299 16.7413L57.0026 20.2064L57.3426 13.1173L59.3701 11.989L58.5788 26.8528L56.4744 28.0238Z" fill="white"/>
<path d="M65.1253 18.9872L66.6211 17.626C66.9729 18.3944 67.4656 18.928 68.0991 19.227C68.7359 19.5185 69.447 19.5101 70.2324 19.2018C70.947 18.9214 71.4487 18.564 71.7377 18.1296C72.0246 17.6897 72.06 17.1943 71.8438 16.6434C71.6233 16.0816 71.2813 15.7154 70.8178 15.5448C70.3598 15.3721 69.828 15.4045 69.2226 15.6421L68.4699 15.9375L67.7796 14.1784L68.4505 13.9151C69.6777 13.4335 70.0784 12.65 69.6524 11.5646C69.4426 11.0301 69.0815 10.6871 68.5689 10.5358C68.0596 10.3769 67.4695 10.429 66.7986 10.6923C66.1987 10.9278 65.7697 11.2944 65.5119 11.7921C65.2594 12.2877 65.1989 12.8874 65.3303 13.5912L63.3577 13.4966C63.2187 12.4686 63.3879 11.5524 63.8653 10.7482C64.3462 9.93638 65.1211 9.3207 66.1902 8.90116C67.3738 8.43668 68.4444 8.36589 69.4019 8.68878C70.3607 8.99863 71.0434 9.67173 71.4501 10.7081C71.7134 11.379 71.7719 12.0012 71.6256 12.5747C71.4826 13.1407 71.147 13.6249 70.6188 14.0273C71.2854 13.9293 71.8923 14.0405 72.4397 14.3607C72.985 14.6755 73.3999 15.1956 73.6846 15.921C74.1127 17.0119 74.061 18.0109 73.5296 18.9182C72.9917 19.8091 72.0954 20.5007 70.8409 20.993C70.2137 21.2391 69.6035 21.3684 69.0104 21.3809C68.4152 21.3879 67.8767 21.2908 67.3949 21.0896C66.9185 20.8863 66.4884 20.6082 66.1044 20.2553C65.7238 19.8948 65.3974 19.4721 65.1253 18.9872Z" fill="white"/>
<path d="M85.1162 10.9152L78.459 12.477L79.6715 17.6453L77.7377 18.0989L74.859 5.82858L76.7929 5.3749L78.0475 10.7229L84.7046 9.16107L83.45 3.81311L85.3753 3.36143L88.2539 15.6318L86.3287 16.0835L85.1162 10.9152Z" fill="white"/>
<path d="M90.5275 15.0337L94.7675 2.0849L97.5023 1.8841L103.597 14.074L101.37 14.2375L99.9368 11.276L93.7309 11.7316L92.754 14.8702L90.5275 15.0337ZM94.3002 9.88322L99.1036 9.53053L96.2552 3.62364L94.3002 9.88322Z" fill="white"/>
<path d="M117.676 2.33556L117.523 4.21902L112.95 3.84781L112.083 14.5266L110.112 14.3665L110.979 3.68781L106.398 3.31589L106.55 1.43244L117.676 2.33556Z" fill="white"/>
<path d="M119.343 15.199L122.175 2.9178L124.11 3.36412L122.945 8.41707L127.167 9.39066C128.349 9.66319 129.242 10.2118 129.845 11.0365C130.449 11.8611 130.623 12.8273 130.368 13.935C130.112 15.0426 129.533 15.835 128.629 16.3121C127.725 16.7892 126.682 16.8915 125.5 16.619L119.343 15.199ZM121.703 13.804L125.839 14.7579C126.462 14.9014 127.005 14.8523 127.47 14.6107C127.94 14.3704 128.235 13.9904 128.355 13.4709C128.475 12.9513 128.376 12.4805 128.058 12.0585C127.746 11.6378 127.279 11.3557 126.657 11.2122L122.52 10.2584L121.703 13.804Z" fill="white"/>
<path d="M137.63 20.1695L142.968 8.7526L151.042 12.5277L150.241 14.2395L143.967 11.3057L142.571 14.2913L146.56 16.1566C147.659 16.6703 148.417 17.3936 148.835 18.3263C149.258 19.2615 149.228 20.2439 148.747 21.2736C148.265 22.3033 147.53 22.9556 146.541 23.2306C145.558 23.5081 144.516 23.3899 143.418 22.8761L137.63 20.1695ZM140.229 19.2992L144.139 21.1272C144.717 21.3977 145.259 21.4634 145.764 21.3244C146.274 21.1878 146.642 20.878 146.868 20.395C147.094 19.912 147.095 19.4309 146.873 18.9518C146.656 18.4752 146.258 18.1016 145.68 17.8311L141.771 16.0031L140.229 19.2992Z" fill="white"/>
<path d="M161.991 18.7398C162.734 19.2219 163.345 19.8346 163.825 20.5778C164.309 21.3244 164.632 22.1062 164.793 22.9233C164.954 23.7404 164.952 24.5782 164.788 25.4366C164.623 26.295 164.29 27.0781 163.789 27.7859C163.317 28.5134 162.711 29.1148 161.971 29.5899C161.234 30.0602 160.456 30.3717 159.638 30.5245C158.819 30.6772 157.973 30.6664 157.1 30.492C156.235 30.3161 155.442 29.9726 154.72 29.4614C153.977 28.9793 153.362 28.3674 152.874 27.6257C152.394 26.8824 152.074 26.1022 151.913 25.2851C151.752 24.468 151.751 23.6286 151.911 22.7669C152.079 21.9037 152.413 21.1181 152.915 20.4103C153.384 19.6876 153.986 19.0911 154.723 18.6208C155.468 18.149 156.25 17.8367 157.068 17.684C157.887 17.5312 158.73 17.5404 159.599 17.7115C160.471 17.8858 161.269 18.2286 161.991 18.7398ZM155.78 27.8975C156.464 28.3612 157.194 28.6263 157.97 28.6926C158.755 28.7574 159.512 28.6123 160.241 28.2573C160.97 27.9023 161.583 27.3588 162.08 26.6265C162.833 25.5161 163.093 24.3651 162.861 23.1736C162.636 21.9806 161.993 21.0239 160.931 20.3036C159.869 19.5834 158.738 19.3403 157.538 19.5745C156.344 19.812 155.371 20.4835 154.621 21.5892C153.868 22.6996 153.61 23.8522 153.848 25.047C154.089 26.2369 154.733 27.1871 155.78 27.8975Z" fill="white"/>
<path d="M161.77 34.1246L161.969 33.9129C163.364 33.4776 164.997 32.2614 166.867 30.2643L171.175 25.6649L178.405 32.4363L169.789 41.6349L168.339 40.2771L175.723 32.3934L171.387 28.3318L168.431 31.4878C166.364 33.6945 164.648 35.046 163.284 35.5425L161.77 34.1246Z" fill="white"/>
<path d="M171.969 43.8369L181.827 35.9841L183.065 37.5377L179.009 40.7687L181.708 44.1578C182.464 45.1065 182.822 46.0914 182.781 47.1125C182.741 48.1337 182.276 48.9984 181.387 49.7066C180.498 50.4149 179.551 50.6746 178.546 50.4859C177.542 50.2971 176.662 49.7284 175.906 48.7797L171.969 43.8369ZM174.685 44.2132L177.33 47.5336C177.728 48.0331 178.184 48.3328 178.698 48.4327C179.215 48.5372 179.683 48.4234 180.1 48.0911C180.517 47.7589 180.732 47.3288 180.746 46.8008C180.764 46.2774 180.574 45.766 180.176 45.2664L177.531 41.946L174.685 44.2132Z" fill="white"/>
<path d="M197.351 59.0689L198.31 60.8081L187.274 66.8958L180.333 54.3132L191.369 48.2255L192.328 49.9647L182.87 55.1822L184.904 58.8684L194.362 53.651L195.317 55.3826L185.859 60.6L187.892 64.2863L197.351 59.0689Z" fill="white"/>
<path d="M200.066 64.95L203.163 73.5967L201.384 74.2339L198.957 67.4572L195.904 68.5508L198.147 74.8145L196.368 75.4517L194.125 69.188L190.65 70.4328L193.136 77.3749L191.357 78.0121L188.201 69.2L200.066 64.95Z" fill="white"/>
<path d="M200.79 91.5486L201.06 93.8708L198.737 94.1406L198.468 91.8183L200.79 91.5486Z" fill="white"/>
</svg>
