<svg width="213" height="22" viewBox="0 0 213 22" fill="none" xmlns="http://www.w3.org/2000/svg">
<path d="M20.5076 22H2.18609C2.18609 22 2.18609 22 2.16006 22C2.16006 22 2.16006 22 2.13404 22C0.96292 22 0 21.0633 0 19.9241V2.10127C0 0.936709 0.96292 3.77245e-07 2.13404 3.77245e-07C2.16006 3.77245e-07 2.16006 3.77245e-07 2.16006 3.77245e-07C2.18609 3.77245e-07 2.18609 3.77245e-07 2.18609 3.77245e-07H20.5076C21.7047 3.77245e-07 22.6677 0.936709 22.6677 2.10127V19.9241C22.6677 21.0633 21.7047 22 20.5076 22ZM4.2941 4.17721V17.8228H18.3736V4.17721H4.2941Z" fill="white"/>
<path d="M47.5462 4.17721H40.5195V19.9241C40.5195 21.0633 39.5566 22 38.3595 22C37.1883 22 36.2254 21.0633 36.2254 19.9241V4.17721H29.2247C28.0536 4.17721 27.0907 3.24051 27.0907 2.10127C27.0907 0.936709 28.0536 3.77245e-07 29.2247 3.77245e-07H47.5462C48.7434 3.77245e-07 49.7063 0.936709 49.7063 2.10127C49.7063 3.24051 48.7434 4.17721 47.5462 4.17721Z" fill="white"/>
<path d="M93.0152 22H74.6936C73.5225 22 72.5596 21.0633 72.5596 19.9241C72.5596 18.7595 73.5225 17.8228 74.6936 17.8228H90.8811V13.0886H74.6936C73.5225 13.0886 72.5596 12.1519 72.5596 11.0127C72.5596 9.8481 73.5225 8.91139 74.6936 8.91139H90.8811V4.17721H74.6936C73.5225 4.17721 72.5596 3.24051 72.5596 2.10127C72.5596 0.936709 73.5225 3.77245e-07 74.6936 3.77245e-07H93.0152C94.2123 3.77245e-07 95.1752 0.936709 95.1752 2.10127V19.9241C95.1752 21.0633 94.2123 22 93.0152 22Z" fill="white"/>
<path d="M122.32 22H103.998C103.998 22 103.998 22 103.972 22C103.972 22 103.972 22 103.946 22C102.775 22 101.812 21.0633 101.812 19.9241V2.10127C101.812 0.936709 102.775 3.77245e-07 103.946 3.77245e-07C103.972 3.77245e-07 103.972 3.77245e-07 103.972 3.77245e-07C103.998 3.77245e-07 103.998 3.77245e-07 103.998 3.77245e-07H122.32C123.517 3.77245e-07 124.48 0.936709 124.48 2.10127C124.48 3.24051 123.517 4.17721 122.32 4.17721H106.106V8.91139H122.32C123.517 8.91139 124.48 9.8481 124.48 11.0127C124.48 12.1519 123.517 13.0886 122.32 13.0886H106.106V17.8228H122.32C123.517 17.8228 124.48 18.7595 124.48 19.9241C124.48 21.0633 123.517 22 122.32 22Z" fill="white"/>
<path d="M151.883 22C150.686 22 149.723 21.0633 149.723 19.9241V7.11392L144.205 12.4557C143.945 12.7089 143.659 12.8861 143.321 12.9873C143.112 13.0633 142.878 13.0886 142.644 13.0886C142.097 13.0886 141.551 12.8861 141.135 12.481L135.643 7.13924V19.9241C135.643 21.0633 134.68 22 133.483 22C132.312 22 131.349 21.0633 131.349 19.9241V2.10127C131.349 1.5443 131.557 1.01266 131.974 0.607595C132.807 -0.202532 134.16 -0.202532 135.019 0.607595L142.67 8.05063L149.957 0.962025C150.061 0.860759 150.165 0.784809 150.269 0.708861C150.66 0.278481 151.232 3.77245e-07 151.883 3.77245e-07C153.054 3.77245e-07 154.017 0.936709 154.017 2.10127V19.9241C154.017 21.0633 153.054 22 151.883 22Z" fill="white"/>
<path d="M161.506 18.4304L176.158 4.17721H163.015C161.844 4.17721 160.881 3.24051 160.881 2.10127C160.881 0.936709 161.844 3.77245e-07 163.015 3.77245e-07H181.337C181.623 3.77245e-07 181.883 0.0506326 182.144 0.151899C182.352 0.227849 182.56 0.354431 182.742 0.506329C182.846 0.582279 182.924 0.683543 183.002 0.759493C183.133 0.936709 183.237 1.08861 183.315 1.29114C183.445 1.51899 183.497 1.79747 183.497 2.10127V19.9241C183.497 21.0633 182.534 22 181.337 22C180.166 22 179.203 21.0633 179.203 19.9241V7.13924L164.551 21.3924C164.134 21.7975 163.562 22 163.015 22C162.469 22 161.922 21.7975 161.506 21.3924C160.673 20.5823 160.673 19.2658 161.506 18.4304Z" fill="white"/>
<path d="M194.626 2.10127V10.6582L208.706 7.03797V2.10127C208.706 0.936709 209.669 3.77245e-07 210.84 3.77245e-07C212.037 3.77245e-07 213 0.936709 213 2.10127V19.9241C213 21.0633 212.037 22 210.84 22C209.669 22 208.706 21.0633 208.706 19.9241V11.3671L194.626 15.0127V19.9241C194.626 21.0633 193.664 22 192.466 22C191.295 22 190.332 21.0633 190.332 19.9241V2.10127C190.332 0.936709 191.295 3.77245e-07 192.466 3.77245e-07C193.664 3.77245e-07 194.626 0.936709 194.626 2.10127Z" fill="white"/>
</svg>
