<svg width="789" height="790" viewBox="0 0 789 790" fill="none" xmlns="http://www.w3.org/2000/svg">
<g clip-path="url(#clip0_15_1150)">
<path d="M384.774 475.87V496.773H405.662V475.87H384.774Z" fill="black" stroke="white" stroke-miterlimit="10"/>
<path d="M384.774 702.945V723.848H405.662V702.945H384.774Z" fill="black" stroke="white" stroke-miterlimit="10"/>
<path d="M342.175 596.501V617.405H363.063V596.501H342.175Z" fill="black" stroke="white" stroke-miterlimit="10"/>
<path d="M428.299 596.51V617.413H449.187V596.51H428.299Z" fill="black" stroke="white" stroke-miterlimit="10"/>
<path d="M395.681 789.158C414.243 789.158 429.291 774.099 429.291 755.523C429.291 736.947 414.243 721.888 395.681 721.888C377.118 721.888 362.07 736.947 362.07 755.523C362.07 774.099 377.118 789.158 395.681 789.158Z" fill="black" stroke="white" stroke-miterlimit="10"/>
<path d="M363.062 525.864V674.401C363.062 692.429 377.666 707.043 395.681 707.043C413.695 707.043 428.299 692.429 428.299 674.401V525.864C428.299 507.836 413.695 493.222 395.681 493.222C377.666 493.222 363.062 507.836 363.062 525.864Z" fill="black" stroke="white" stroke-miterlimit="10"/>
<path d="M342.175 664.513V559.121C342.175 552.12 336.592 546.423 329.595 546.238C304.259 545.556 249.021 535.475 243.656 461.211C243.169 454.436 237.585 449.168 230.807 449.168H125.217C118.178 449.168 112.452 454.815 112.334 461.85C111.552 508.84 123.779 670.681 328.855 677.388C336.137 677.624 342.175 671.792 342.175 664.504V664.513Z" fill="black" stroke="white" stroke-miterlimit="10"/>
<path d="M475.104 405.292H495.992V384.388H475.104V405.292Z" fill="black" stroke="white" stroke-miterlimit="10"/>
<path d="M702.01 405.292H722.897V384.388H702.01V405.292Z" fill="black" stroke="white" stroke-miterlimit="10"/>
<path d="M595.646 447.923H616.534V427.02H595.646V447.923Z" fill="black" stroke="white" stroke-miterlimit="10"/>
<path d="M595.646 361.735H616.534V340.831H595.646V361.735Z" fill="black" stroke="white" stroke-miterlimit="10"/>
<path d="M754.54 428.004C773.103 428.004 788.151 412.945 788.151 394.369C788.151 375.793 773.103 360.733 754.54 360.733C735.978 360.733 720.93 375.793 720.93 394.369C720.93 412.945 735.978 428.004 754.54 428.004Z" fill="black" stroke="white" stroke-miterlimit="10"/>
<path d="M525.069 427.02H673.495C691.51 427.02 706.113 412.405 706.113 394.377C706.113 376.349 691.51 361.735 673.495 361.735H525.069C507.055 361.735 492.451 376.349 492.451 394.377C492.451 412.405 507.055 427.02 525.069 427.02Z" fill="black" stroke="white" stroke-miterlimit="10"/>
<path d="M663.851 447.923H558.066C551.196 447.923 545.596 453.41 545.428 460.277C544.806 485.556 534.875 541.231 460.246 546.532C453.603 547.003 448.439 552.49 448.439 559.155V665.279C448.439 672.187 453.981 677.809 460.885 677.927C507.563 678.76 669.913 666.802 676.506 461C676.733 453.847 671.015 447.923 663.867 447.923H663.851Z" fill="black" stroke="white" stroke-miterlimit="10"/>
<path d="M404.141 314.13V293.227H383.253V314.13H404.141Z" fill="black" stroke="white" stroke-miterlimit="10"/>
<path d="M404.149 87.055V66.1517H383.262V87.055H404.149Z" fill="black" stroke="white" stroke-miterlimit="10"/>
<path d="M446.74 193.49V172.587H425.852V193.49H446.74Z" fill="black" stroke="white" stroke-miterlimit="10"/>
<path d="M360.616 193.499V172.595H339.728V193.499H360.616Z" fill="black" stroke="white" stroke-miterlimit="10"/>
<path d="M393.234 68.1124C411.797 68.1124 426.845 53.0533 426.845 34.477C426.845 15.9006 411.797 0.841515 393.234 0.841515C374.672 0.841515 359.624 15.9006 359.624 34.477C359.624 53.0533 374.672 68.1124 393.234 68.1124Z" fill="black" stroke="white" stroke-miterlimit="10"/>
<path d="M425.853 264.136V115.599C425.853 97.5714 411.249 82.9568 393.234 82.9568C375.22 82.9568 360.616 97.5714 360.616 115.599V264.136C360.616 282.164 375.22 296.778 393.234 296.778C411.249 296.778 425.853 282.164 425.853 264.136Z" fill="black" stroke="white" stroke-miterlimit="10"/>
<path d="M446.749 125.361V230.988C446.749 237.931 452.282 243.577 459.211 243.754C484.505 244.41 539.945 254.416 545.276 328.89C545.755 335.597 551.288 340.815 558.007 340.815H663.825C670.796 340.815 676.463 335.227 676.581 328.251C677.388 281.404 665.305 119.235 459.934 112.587C452.727 112.351 446.74 118.132 446.74 125.352L446.749 125.361Z" fill="black" stroke="white" stroke-miterlimit="10"/>
<path d="M313.897 383.454H293.009V404.358H313.897V383.454Z" fill="black" stroke="white" stroke-miterlimit="10"/>
<path d="M86.9903 383.454H66.1025V404.358H86.9903V383.454Z" fill="black" stroke="white" stroke-miterlimit="10"/>
<path d="M193.355 340.823H172.467V361.726H193.355V340.823Z" fill="black" stroke="white" stroke-miterlimit="10"/>
<path d="M193.355 427.011H172.467V449.177H193.355V427.011Z" fill="black" stroke="white" stroke-miterlimit="10"/>
<path d="M395.101 477.536C441.124 477.536 478.433 440.199 478.433 394.142C478.433 348.084 441.124 310.747 395.101 310.747C349.078 310.747 311.769 348.084 311.769 394.142C311.769 440.199 349.078 477.536 395.101 477.536Z" fill="black"/>
<path d="M395.101 477.536C441.124 477.536 478.433 440.199 478.433 394.142C478.433 348.084 441.124 310.747 395.101 310.747C349.078 310.747 311.769 348.084 311.769 394.142C311.769 440.199 349.078 477.536 395.101 477.536Z" fill="white" fill-opacity="0.2"/>
<path d="M395.101 477.536C441.124 477.536 478.433 440.199 478.433 394.142C478.433 348.084 441.124 310.747 395.101 310.747C349.078 310.747 311.769 348.084 311.769 394.142C311.769 440.199 349.078 477.536 395.101 477.536Z" stroke="white" stroke-miterlimit="10"/>
<path d="M34.4513 428.004C53.0138 428.004 68.0617 412.945 68.0617 394.369C68.0617 375.793 53.0138 360.733 34.4513 360.733C15.8887 360.733 0.84082 375.793 0.84082 394.369C0.84082 412.945 15.8887 428.004 34.4513 428.004Z" fill="black" stroke="white" stroke-miterlimit="10"/>
<path d="M263.931 361.726H115.505C97.4904 361.726 82.8867 376.341 82.8867 394.369C82.8867 412.397 97.4904 427.011 115.505 427.011H263.931C281.945 427.011 296.549 412.397 296.549 394.369C296.549 376.341 281.945 361.726 263.931 361.726Z" fill="black" stroke="white" stroke-miterlimit="10"/>
<path d="M125.335 340.823H230.774C237.729 340.823 243.388 335.269 243.573 328.31C244.237 302.98 254.26 247.574 328.604 242.222C335.331 241.743 340.561 236.189 340.561 229.44V123.644C340.561 116.634 334.944 110.929 327.939 110.811C281.043 110.012 119.18 122.188 112.503 327.552C112.268 334.806 118.078 340.823 125.327 340.823H125.335Z" fill="black" stroke="white" stroke-miterlimit="10"/>
</g>
<defs>
<clipPath id="clip0_15_1150">
<rect width="789" height="790" fill="white"/>
</clipPath>
</defs>
</svg>
